# xmcd
#
# Track frame offsets: 
#        182
#        15937
#        40710
#
# Disc length: 818 seconds
#
# Revision: 0
# Processed by: cddbd v1.5.2PL0 Copyright (c) Steve Scherf et al.
# Submitted via: ExactAudioCopy v1.0b2
#
DISCID=12033003
DTITLE=Allan Mikusek - Allan
DYEAR=1992
DGENRE=Country
TTITLE0=Tak uz chod
TTITLE1=Dazd
TTITLE2=Poznam ta malo
EXTD=
EXTT0=
EXTT1=
EXTT2=
PLAYORDER=
